<?xml version="1.0" encoding="utf-8"?>
<!-- Generator: Adobe Illustrator 24.0.1, SVG Export Plug-In . SVG Version: 6.00 Build 0)  -->
<svg version="1.1" id="Layer_1" xmlns="http://www.w3.org/2000/svg" xmlns:xlink="http://www.w3.org/1999/xlink" x="0px" y="0px"
	 viewBox="0 0 288 164.2" style="enable-background:new 0 0 288 164.2;" xml:space="preserve">
<style type="text/css">
	.st0{fill:#002856;}
	.st1{fill-rule:evenodd;clip-rule:evenodd;fill:#002856;}
</style>
<g>
	<path class="st0" d="M0,0v66.3h66.3V0H0z M60.8,47.2l-9.2,14.5l-30-0.4l6.5-24.4c1.1-4.7-1.3-8.2-6.8-8.4l-9.1-0.7
		c0.1-3.2,0.7-6.2,2.1-9.2l46.6-1.8l-6,24L61,34L60.8,47.2z"/>
	<path class="st0" d="M0,69.9v66.3h66.3V69.9H0z M47.9,77.5l-11.1,45.3c-0.5,1.6-1,2.4-2.9,2.4l-27.2-0.1c-1.4,0-1.4-0.6-1-1.9
		l12.7-44.7c0.7-2.3,0.8-3.1,2.8-3.2l25.5,0.3C47.9,75.5,48.3,75.9,47.9,77.5z"/>
	<path class="st0" d="M69.7,69.9v66.3h66.3V69.9H69.7z M106.1,125.6c-7.9,4.7-22.3,4.6-29.2-3.5c-3.4-4.5-4.2-10.2-2.6-16.3l8.9-30
		h29.6l-9.7,33.5c-0.5,2.3,1.2,5.1,4.8,3.5c6-3.4,12.9-12.9,18.6-21.3l7.7,4.9C127.9,107.9,116.8,120.7,106.1,125.6z"/>
	<path class="st0" d="M69.7,0v66.3h66.3V0H69.7z M118.1,60.7H88.9l5.8-22.2C94.4,28.8,84.6,30.1,77,40l-0.3-13.4l0.5-0.6
		c4.5-3.6,9.4-6.8,15.6-8.6c4.8-1.2,9.1-1.5,12.9-1c4.3,0.5,8,2.1,11.2,4.5c4.4,3.8,6.3,9.6,6.6,17.5
		C122.9,46.5,120.8,53.8,118.1,60.7z"/>
	<path class="st1" d="M235.7,54.7h-9.3l2.9-15l8.4,0l5.2-24l26.5-3.8l-5.9,27.5h13.2l-3.5,15.3h-11.9l-4.4,26
		c-0.9,4.4-2.6,12-2.6,16.7c0,4.8,2,7.3,6.3,7.3c2.8,0,4.2-0.8,6.6-2.3l-2.3,15.4c-6.8,2.5-11.2,2.3-18.3,2.3
		c-12,0-20.4-4.4-18.9-18.3c0-3.9,0.7-8.2,1.5-12.2L235.7,54.7L235.7,54.7z"/>
	<path class="st0" d="M280.7,11.7L280.7,11.7L280.7,11.7c2,0,3.8,0.8,5.2,2.1l0,0c1.3,1.3,2.1,3.1,2.1,5.2h0v0v0h0
		c0,2-0.8,3.8-2.1,5.2v0c-1.3,1.3-3.1,2.1-5.2,2.1v0h0h0v0c-2,0-3.8-0.8-5.2-2.1v0c-1.3-1.3-2.1-3.1-2.1-5.2h0v0v0h0
		c0-2,0.8-3.8,2.1-5.2C276.9,12.6,278.7,11.7,280.7,11.7L280.7,11.7L280.7,11.7L280.7,11.7z M280.7,13.2L280.7,13.2L280.7,13.2
		L280.7,13.2L280.7,13.2c-1.6,0-3.1,0.7-4.1,1.7c-1.1,1.1-1.7,2.5-1.7,4.1h0v0v0h0c0,1.6,0.7,3.1,1.7,4.1v0c1.1,1.1,2.5,1.7,4.1,1.7
		v0h0h0v0c1.6,0,3.1-0.7,4.1-1.7h0c1.1-1.1,1.7-2.5,1.7-4.1h0v0v0h0c0-1.6-0.7-3.1-1.7-4.1v0C283.8,13.9,282.3,13.2,280.7,13.2
		L280.7,13.2z"/>
	<path class="st0" d="M277.6,22.6v-7.2h3.1c0.8,0,1.3,0.1,1.7,0.2c0.3,0.1,0.6,0.4,0.8,0.7c0.2,0.3,0.3,0.7,0.3,1.1
		c0,0.5-0.2,1-0.5,1.3c-0.3,0.4-0.8,0.6-1.4,0.7c0.3,0.2,0.6,0.4,0.8,0.6c0.2,0.2,0.5,0.6,0.8,1.2l0.9,1.4h-1.7l-1.1-1.6
		c-0.4-0.6-0.6-0.9-0.8-1.1c-0.1-0.1-0.3-0.2-0.4-0.3c-0.2-0.1-0.4-0.1-0.7-0.1h-0.3v3H277.6L277.6,22.6z M279.1,18.5h1.1
		c0.7,0,1.1,0,1.3-0.1c0.2-0.1,0.3-0.2,0.4-0.3c0.1-0.1,0.1-0.3,0.1-0.5c0-0.2-0.1-0.4-0.2-0.6c-0.1-0.1-0.3-0.2-0.5-0.3
		c-0.1,0-0.5,0-1.1,0h-1.1V18.5L279.1,18.5z"/>
	<path class="st1" d="M211.1,55.1c-15.5,0-29.6,20.3-34.6,35.2h-1.6l7.7-34.3l-32.5,0.9l-1.8,14l5.5,0.9l-0.7,6.1L141.6,144l-4.5,21
		l26.2-0.9l4.8-27.3l6.9,0.9c11.8,1.8,26.8-8.6,35.9-21.3c8-11.2,14.7-26.9,14.7-41.4C225.7,65.5,220.5,55.1,211.1,55.1z M194,108.3
		c-2.9,6.9-7.2,15.5-14.9,15.5c-3,0-5.4-1.5-8-3.1l2.2-12.8c3.5-6.7,17-30.8,24-30.8c2.4,0,3.1,2.6,3.1,4.8
		C200.4,89.7,197,101,194,108.3z"/>
</g>
</svg>
